<svg xmlns="http://www.w3.org/2000/svg" width="256" height="256" viewBox="0 0 100 100"><rect width="100" height="100" rx="0" fill="#850000"></rect><path fill="#fff" d="M12.02 69.31L23.72 69.31L23.72 38.16Q21.20 39.97 17.96 41.36Q14.72 42.76 12.47 43.56L12.47 43.56L8.87 34.38Q11.03 33.58 13.55 32.31Q16.07 31.05 18.59 29.52Q21.11 28.00 23.36 26.29Q25.61 24.58 27.23 22.77L27.23 22.77L34.79 22.77L34.79 69.31L45.86 69.31L45.86 78.48L12.02 78.48L12.02 69.31ZM88.61 37.45L88.61 37.45Q88.61 40.33 87.53 42.98Q86.45 45.63 84.65 48.16Q82.85 50.67 80.60 53.02Q78.35 55.36 76.01 57.52L76.01 57.52Q74.84 58.59 73.31 60.08Q71.78 61.56 70.43 63.14Q69.08 64.72 68.14 66.33Q67.19 67.95 67.19 69.31L67.19 69.31L91.13 69.31L91.13 78.48L54.77 78.48Q54.50 77.58 54.55 76.23Q54.59 74.89 54.59 74.34L54.59 74.34Q54.59 69.84 56.26 66.06Q57.92 62.28 60.48 59.09Q63.05 55.89 65.98 53.15Q68.90 50.41 71.47 47.89Q74.03 45.37 75.70 43.02Q77.36 40.69 77.36 38.26L77.36 38.26Q77.36 34.84 75.29 32.99Q73.22 31.15 70.07 31.15L70.07 31.15Q67.46 31.15 64.58 32.41Q61.70 33.66 58.91 36.63L58.91 36.63L53.42 28.90Q57.02 25.12 61.75 23.32Q66.47 21.52 71.15 21.52L71.15 21.52Q74.57 21.52 77.72 22.51Q80.87 23.50 83.30 25.48Q85.73 27.45 87.17 30.47Q88.61 33.48 88.61 37.45Z"></path></svg>